<svg style="object-fit:cover" id="my-svg" version="1" baseProfile="full" width="100%" height="100%" viewBox="0 0 1920 929" xmlns="http://www.w3.org/2000/svg"><rect width="1920" height="929" fill="#000000"/><defs><linearGradient id="linear-gradient" x1="0" x2="1" y1="0" y2="1"><stop offset="0%" stop-color="#ff190050"/><stop offset="100%" stop-color="#ff00d050"/></linearGradient></defs><path transform="scale(-1, 1)" style="transform-origin:center" d="M 0,929 V 0,185 C 185.03571428571428,158.42857142857144 370.07142857142856,131.85714285714286 515,135 C 659.9285714285714,138.14285714285714 764.75,171 904,193 C 1043.25,215 1216.9285714285713,226.14285714285714 1392,223 C 1567.0714285714287,219.85714285714286 1743.5357142857142,202.42857142857144 1920,185 C 1920,185 1920,929 1920,929 Z" stroke="none" stroke-width="0" fill="url(#linear-gradient)" class="transition-all duration-300 ease-in-out delay-150"/><defs><linearGradient id="linear-gradient" x1="0" x2="1" y1="0" y2="1"><stop offset="0%" stop-color="#ff190060"/><stop offset="100%" stop-color="#ff00d060"/></linearGradient></defs><path transform="scale(-1, 1)" d="M 0,929 V 0,278 C 120.78571428571428,260.6071428571429 241.57142857142856,243.21428571428572 428,248 C 614.4285714285714,252.78571428571428 866.5,279.75000000000006 1031,292 C 1195.5,304.24999999999994 1272.4285714285716,301.7857142857143 1406,297 C 1539.5714285714284,292.2142857142857 1729.7857142857142,285.1071428571429 1920,278 C 1920,278 1920,929 1920,929 Z" stroke="none" stroke-width="0" fill="url(#linear-gradient)" class="transition-all duration-300 ease-in-out delay-150" style="transform-origin: center center;"/><defs><linearGradient id="linear-gradient" x1="0" x2="1" y1="0" y2="1"><stop offset="0%" stop-color="#ff190070"/><stop offset="100%" stop-color="#ff00d070"/></linearGradient></defs><path transform="scale(-1, 1)" d="M 0,929 V 0,418 C 170.67857142857144,417.7857142857143 341.3571428571429,417.57142857142856 491,410 C 640.6428571428571,402.42857142857144 769.2500000000002,387.50000000000006 917,391 C 1064.7499999999998,394.49999999999994 1231.642857142857,416.4285714285714 1402,424 C 1572.357142857143,431.5714285714286 1746.1785714285716,424.78571428571433 1920,418 C 1920,418 1920,929 1920,929 Z" stroke="none" stroke-width="0" fill="url(#linear-gradient)" class="transition-all duration-300 ease-in-out delay-150" style="transform-origin: center center;"/><defs><linearGradient id="linear-gradient" x1="0" x2="1" y1="0" y2="1"><stop offset="0%" stop-color="#ff190080"/><stop offset="100%" stop-color="#ff00d080"/></linearGradient></defs><path transform="scale(-1, 1)" d="M 0,929 V 0,627 C 201.82142857142856,636.4285714285714 403.6428571428571,645.8571428571429 560,633 C 716.3571428571429,620.1428571428571 827.25,585 968,599 C 1108.75,613 1279.357142857143,676.1428571428572 1443,689 C 1606.642857142857,701.8571428571428 1763.3214285714284,664.4285714285713 1920,627 C 1920,627 1920,929 1920,929 Z" stroke="none" stroke-width="0" fill="url(#linear-gradient)" class="transition-all duration-300 ease-in-out delay-150" style="transform-origin: center center;"/><defs><linearGradient id="linear-gradient" x1="0" x2="1" y1="0" y2="1"><stop offset="0%" stop-color="#ff190090"/><stop offset="100%" stop-color="#ff00d090"/></linearGradient></defs><path transform="scale(-1, 1)" d="M 0,929 V 0,940 C 136.07142857142856,912.0714285714286 272.1428571428571,884.1428571428571 461,884 C 649.8571428571429,883.8571428571429 891.4999999999998,911.4999999999999 1045,913 C 1198.5000000000002,914.5000000000001 1263.857142857143,889.8571428571429 1395,890 C 1526.142857142857,890.1428571428571 1723.0714285714284,915.0714285714286 1920,940 C 1920,940 1920,929 1920,929 Z" stroke="none" stroke-width="0" fill="url(#linear-gradient)" class="transition-all duration-300 ease-in-out delay-150" style="transform-origin: center center;"/><defs><linearGradient id="linear-gradient" x1="0" x2="1" y1="0" y2="1"><stop offset="0%" stop-color="#ff1900ff"/><stop offset="100%" stop-color="#ff00d0ff"/></linearGradient></defs><path transform="scale(-1, 1)" d="M 0,929 V 0,1410 C 174.96428571428572,1396.7142857142858 349.92857142857144,1383.4285714285713 504,1404 C 658.0714285714286,1424.5714285714287 791.25,1479 931,1466 C 1070.75,1453 1217.0714285714284,1372.5714285714287 1383,1352 C 1548.9285714285716,1331.4285714285713 1734.4642857142858,1370.7142857142858 1920,1410 C 1920,1410 1920,929 1920,929 Z" stroke="none" stroke-width="0" fill="url(#linear-gradient)" class="transition-all duration-300 ease-in-out delay-150" style="transform-origin: center center;"/></svg>